<svg xmlns="http://www.w3.org/2000/svg" viewBox="0 0 512 288" width="512" height="288"><defs><pattern id="ht" width="10" height="10" patternUnits="userSpaceOnUse"><circle cx="5" cy="5" r="1.1" fill="#141210" opacity="0.15"/></pattern></defs><rect x="0" y="0" width="512" height="288" fill="#f4efe4"/><rect x="0" y="0" width="512" height="288" fill="#e8a13a" opacity="0.14"/><g fill="none" stroke="#141210" stroke-width="4"><rect x="61.44" y="57.6" width="112.64" height="34.56"/><rect x="81.92" y="178.56" width="112.64" height="34.56"/><rect x="337.92" y="69.12" width="112.64" height="34.56"/><rect x="327.68" y="172.79999999999998" width="112.64" height="34.56"/></g><circle cx="307.2" cy="120.96" r="25.919999999999998" fill="#e8a13a" stroke="#141210" stroke-width="4"/><path d="M307.2 95.04 v-23.04 M307.2 146.88 v23.04" stroke="#2bb3c0" stroke-width="3"/><g stroke="#241c17" stroke-width="1.5" stroke-linejoin="round"><rect x="148.6" y="207.6" width="4" height="12" fill="#2a2a30"/><rect x="154.6" y="207.6" width="4" height="12" fill="#2a2a30"/><rect x="147.6" y="218.6" width="6" height="3" fill="#241c17"/><rect x="154.6" y="218.6" width="6" height="3" fill="#241c17"/><path d="M146.6 209.6 q7 -9 14 0 l-2 -2 q-5 -6 -10 0 Z" fill="#d9a441"/><path d="M147.6 197.6 q6 3 12 0 l-3 4 q-3 2 -6 0 Z" fill="#2bb3c0" stroke="#2bb3c0"/><circle cx="153.6" cy="192.6" r="4.5" fill="#8a5a3b"/><path d="M148.6 191.6 q5 -7 10 0 q-5 -3 -10 0 Z" fill="#241c17"/><path d="M154.6 186.6 l1.5 5" stroke="#d7d2c4" stroke-width="1.2"/></g><rect x="0" y="0" width="512" height="288" fill="url(#ht)"/><rect x="2" y="2" width="508" height="284" fill="none" stroke="#141210" stroke-width="4"/></svg>