<svg xmlns="http://www.w3.org/2000/svg" viewBox="0 0 1280 853" width="1280" height="853"><defs><pattern id="ht" width="7" height="7" patternUnits="userSpaceOnUse"><circle cx="3.5" cy="3.5" r="1.3" fill="#141210" opacity="0.15"/></pattern></defs><rect x="0" y="0" width="1280" height="853" fill="#f4efe4"/><path d="M256 204.72 q384 -68.24 768 0 v426.5 q-384 68.24 -768 0 Z" fill="#f4efe4" stroke="#141210" stroke-width="5"/><path d="M332.8 426.5 q204.8 -102.36 358.40000000000003 25.59 t281.6 -25.59" fill="none" stroke="#2bb3c0" stroke-width="4"/><circle cx="844.8000000000001" cy="375.32" r="25.6" fill="#e8a13a"/><g stroke="#141210" stroke-width="1" opacity="0.5"><path d="M460.79999999999995 238.84000000000003 v358.26 M691.2 221.78 v392.38"/></g><g stroke="#141210" stroke-width="0.8" opacity="0.25"><path d="M256 204.72 L-170.5 631.22 M263 204.72 L-163.5 631.22 M270 204.72 L-156.5 631.22 M277 204.72 L-149.5 631.22 M284 204.72 L-142.5 631.22 M291 204.72 L-135.5 631.22 M298 204.72 L-128.5 631.22 M305 204.72 L-121.5 631.22 M312 204.72 L-114.5 631.22 M319 204.72 L-107.5 631.22 M326 204.72 L-100.5 631.22 M333 204.72 L-93.5 631.22 M340 204.72 L-86.5 631.22 M347 204.72 L-79.5 631.22 M354 204.72 L-72.5 631.22 M361 204.72 L-65.5 631.22 M368 204.72 L-58.5 631.22 M375 204.72 L-51.5 631.22 M382 204.72 L-44.5 631.22 M389 204.72 L-37.5 631.22 M396 204.72 L-30.5 631.22 M403 204.72 L-23.5 631.22 M410 204.72 L-16.5 631.22 M417 204.72 L-9.5 631.22 M424 204.72 L-2.5 631.22 M431 204.72 L4.5 631.22 M438 204.72 L11.5 631.22 M445 204.72 L18.5 631.22 M452 204.72 L25.5 631.22 M459 204.72 L32.5 631.22 M466 204.72 L39.5 631.22 M473 204.72 L46.5 631.22 M480 204.72 L53.5 631.22 M487 204.72 L60.5 631.22 M494 204.72 L67.5 631.22 M501 204.72 L74.5 631.22 M508 204.72 L81.5 631.22 M515 204.72 L88.5 631.22 M522 204.72 L95.5 631.22 M529 204.72 L102.5 631.22 M536 204.72 L109.5 631.22 M543 204.72 L116.5 631.22 M550 204.72 L123.5 631.22 M557 204.72 L130.5 631.22 M564 204.72 L137.5 631.22 M571 204.72 L144.5 631.22 M578 204.72 L151.5 631.22 M585 204.72 L158.5 631.22 M592 204.72 L165.5 631.22 M599 204.72 L172.5 631.22 M606 204.72 L179.5 631.22 M613 204.72 L186.5 631.22 M620 204.72 L193.5 631.22 M627 204.72 L200.5 631.22 M634 204.72 L207.5 631.22 M641 204.72 L214.5 631.22 M648 204.72 L221.5 631.22 M655 204.72 L228.5 631.22 M662 204.72 L235.5 631.22 M669 204.72 L242.5 631.22 M676 204.72 L249.5 631.22 M683 204.72 L256.5 631.22 M690 204.72 L263.5 631.22 M697 204.72 L270.5 631.22 M704 204.72 L277.5 631.22 M711 204.72 L284.5 631.22 M718 204.72 L291.5 631.22 M725 204.72 L298.5 631.22 M732 204.72 L305.5 631.22 M739 204.72 L312.5 631.22 M746 204.72 L319.5 631.22 M753 204.72 L326.5 631.22 M760 204.72 L333.5 631.22 M767 204.72 L340.5 631.22 M774 204.72 L347.5 631.22 M781 204.72 L354.5 631.22 M788 204.72 L361.5 631.22 M795 204.72 L368.5 631.22 M802 204.72 L375.5 631.22 M809 204.72 L382.5 631.22 M816 204.72 L389.5 631.22 M823 204.72 L396.5 631.22 M830 204.72 L403.5 631.22 M837 204.72 L410.5 631.22 M844 204.72 L417.5 631.22 M851 204.72 L424.5 631.22 M858 204.72 L431.5 631.22 M865 204.72 L438.5 631.22 M872 204.72 L445.5 631.22 M879 204.72 L452.5 631.22 M886 204.72 L459.5 631.22 M893 204.72 L466.5 631.22 M900 204.72 L473.5 631.22 M907 204.72 L480.5 631.22 M914 204.72 L487.5 631.22 M921 204.72 L494.5 631.22 M928 204.72 L501.5 631.22 M935 204.72 L508.5 631.22 M942 204.72 L515.5 631.22 M949 204.72 L522.5 631.22 M956 204.72 L529.5 631.22 M963 204.72 L536.5 631.22 M970 204.72 L543.5 631.22 M977 204.72 L550.5 631.22 M984 204.72 L557.5 631.22 M991 204.72 L564.5 631.22 M998 204.72 L571.5 631.22 M1005 204.72 L578.5 631.22 M1012 204.72 L585.5 631.22 M1019 204.72 L592.5 631.22 M1026 204.72 L599.5 631.22 M1033 204.72 L606.5 631.22 M1040 204.72 L613.5 631.22 M1047 204.72 L620.5 631.22 M1054 204.72 L627.5 631.22 M1061 204.72 L634.5 631.22 M1068 204.72 L641.5 631.22 M1075 204.72 L648.5 631.22 M1082 204.72 L655.5 631.22 M1089 204.72 L662.5 631.22 M1096 204.72 L669.5 631.22 M1103 204.72 L676.5 631.22 M1110 204.72 L683.5 631.22 M1117 204.72 L690.5 631.22 M1124 204.72 L697.5 631.22 M1131 204.72 L704.5 631.22 M1138 204.72 L711.5 631.22 M1145 204.72 L718.5 631.22 M1152 204.72 L725.5 631.22 M1159 204.72 L732.5 631.22 M1166 204.72 L739.5 631.22 M1173 204.72 L746.5 631.22 M1180 204.72 L753.5 631.22 M1187 204.72 L760.5 631.22 M1194 204.72 L767.5 631.22 M1201 204.72 L774.5 631.22 M1208 204.72 L781.5 631.22 M1215 204.72 L788.5 631.22 M1222 204.72 L795.5 631.22 M1229 204.72 L802.5 631.22 M1236 204.72 L809.5 631.22 M1243 204.72 L816.5 631.22 M1250 204.72 L823.5 631.22 M1257 204.72 L830.5 631.22 M1264 204.72 L837.5 631.22 M1271 204.72 L844.5 631.22 M1278 204.72 L851.5 631.22 M1285 204.72 L858.5 631.22 M1292 204.72 L865.5 631.22 M1299 204.72 L872.5 631.22 M1306 204.72 L879.5 631.22 M1313 204.72 L886.5 631.22 M1320 204.72 L893.5 631.22 M1327 204.72 L900.5 631.22 M1334 204.72 L907.5 631.22 M1341 204.72 L914.5 631.22 M1348 204.72 L921.5 631.22 M1355 204.72 L928.5 631.22 M1362 204.72 L935.5 631.22 M1369 204.72 L942.5 631.22 M1376 204.72 L949.5 631.22 M1383 204.72 L956.5 631.22 M1390 204.72 L963.5 631.22 M1397 204.72 L970.5 631.22 M1404 204.72 L977.5 631.22 M1411 204.72 L984.5 631.22 M1418 204.72 L991.5 631.22 M1425 204.72 L998.5 631.22 M1432 204.72 L1005.5 631.22 M1439 204.72 L1012.5 631.22 M1446 204.72 L1019.5 631.22"/></g><rect x="0" y="0" width="1280" height="853" fill="url(#ht)"/><rect x="2" y="2" width="1276" height="849" fill="none" stroke="#141210" stroke-width="4"/></svg>