<svg height="640" viewBox="0 0 1600 640" width="1600" xmlns="http://www.w3.org/2000/svg" xmlns:xlink="http://www.w3.org/1999/xlink"><defs><linearGradient id="a" x1="0" x2="0" y1="0" y2="1"><stop offset="0" stop-color="#f9d29d"/><stop offset=".55" stop-color="#f4a261"/><stop offset="1" stop-color="#ffe9c4"/></linearGradient><linearGradient id="b" x1="0" x2="0" y1="0" y2="1"><stop offset="0" stop-color="#1d1b4b"/><stop offset=".5" stop-color="#4b3785"/><stop offset="1" stop-color="#9b4f7a"/></linearGradient><linearGradient id="c" x1="0" x2="1" y1="0" y2="0"><stop offset="0" stop-color="#fff8d6" stop-opacity="0"/><stop offset=".5" stop-color="#fff8d6" stop-opacity=".95"/><stop offset="1" stop-color="#fff8d6" stop-opacity="0"/></linearGradient><linearGradient id="d" x1="0" x2="0" y1="0" y2="1"><stop offset="0" stop-color="#3a2c4b"/><stop offset="1" stop-color="#0d0a12"/></linearGradient><radialGradient id="e" cx=".5" cy=".5" r=".5"><stop offset="0" stop-color="#fff4c2" stop-opacity=".95"/><stop offset="1" stop-color="#ffe6a0" stop-opacity="0"/></radialGradient><radialGradient id="f" cx=".5" cy=".45" r=".7"><stop offset="0" stop-color="#25343f"/><stop offset="1" stop-color="#080c10"/></radialGradient><linearGradient id="g" x1="0" x2="1" y1="0" y2="1"><stop offset="0" stop-color="#f3d484"/><stop offset=".45" stop-color="#c9922f"/><stop offset="1" stop-color="#6f4514"/></linearGradient><radialGradient id="h" cx=".5" cy=".5" r=".5"><stop offset="0" stop-color="#e6feff"/><stop offset=".55" stop-color="#2bb3c0"/><stop offset="1" stop-color="#136f79"/></radialGradient><radialGradient id="i" cx=".5" cy=".55" r=".65"><stop offset="0" stop-color="#7a5ce0"/><stop offset=".5" stop-color="#2a1e6e"/><stop offset="1" stop-color="#0c0928"/></radialGradient><linearGradient id="j" x1="0" x2="0" y1="0" y2="1"><stop offset="0" stop-color="#26212c" stop-opacity=".95"/><stop offset="1" stop-color="#26212c" stop-opacity="0"/></linearGradient><filter id="k" height="200%" width="200%" x="-50%" y="-50%"><feGaussianBlur result="b" stdDeviation="6"/><feMerge><feMergeNode in="b"/><feMergeNode in="SourceGraphic"/></feMerge></filter><filter id="l" height="200%" width="200%" x="-50%" y="-50%"><feGaussianBlur result="b" stdDeviation="2.5"/><feMerge><feMergeNode in="b"/><feMergeNode in="SourceGraphic"/></feMerge></filter><filter id="m" height="140%" width="200%" x="-50%" y="-20%"><feGaussianBlur stdDeviation="12"/></filter><filter id="n"><feTurbulence baseFrequency=".9" numOctaves="2" seed="7" type="fractalNoise"/><feColorMatrix values="0 0 0 0 0  0 0 0 0 0  0 0 0 0 0  0 0 0 .07 0"/></filter><pattern id="o" height="6" patternUnits="userSpaceOnUse" width="6"><circle cx="3" cy="3" opacity=".22" r="1.3"/></pattern><clipPath id="p"><rect height="480" rx="4" width="620" x="20" y="100"/></clipPath><clipPath id="q"><rect height="480" rx="4" width="400" x="660" y="100"/></clipPath><clipPath id="r"><rect height="480" rx="4" width="500" x="1080" y="100"/></clipPath><clipPath id="s"><circle cx="860" cy="350" r="125"/></clipPath><path id="t" d="m860 232v14" stroke="#7a4d18" stroke-linecap="round" stroke-width="3"/><g id="u" fill="none" stroke="#a9e6ec" stroke-linejoin="round" stroke-width="3"><path d="m0 240v-170a55 55 0 0 1 110 0v170z"/><path d="m55 18v222"/><circle cx="55" cy="150" r="22"/><path d="m10 120h90"/><path d="m10 190h90"/></g></defs><path d="m0 0h1600v640h-1600z" fill="#f4efe4"/><path d="m0 0h1600v640h-1600z" filter="url(#n)"/><text fill="#2bb3c0" font-family="'Bangers','Impact','Arial Black','Helvetica Neue',sans-serif" font-size="46" font-weight="900" letter-spacing="2" x="23" y="65">THE CITADEL BETWEEN SKIES</text><text fill="#1b1a1f" font-family="'Bangers','Impact','Arial Black','Helvetica Neue',sans-serif" font-size="46" font-weight="900" letter-spacing="2" x="20" y="62">THE CITADEL BETWEEN SKIES</text><text fill="#5a5560" font-family="'Avenir Next','Helvetica Neue',Arial,sans-serif" font-size="17" font-weight="600" text-anchor="end" x="1580" y="46">INKVERSE · Issue #1 · The Citadel of Time and Space</text><text fill="#8a8592" font-family="'Avenir Next','Helvetica Neue',Arial,sans-serif" font-size="14" font-weight="600" text-anchor="end" x="1580" y="70">Opening trio · Neri, cartographer</text><g fill="#1b1a1f" opacity=".35"><rect height="480" rx="4" width="620" x="26" y="106"/><rect height="480" rx="4" width="400" x="666" y="106"/><rect height="480" rx="4" width="500" x="1086" y="106"/></g><g clip-path="url(#p)"><path d="m20 100h330v345h-330z" fill="url(#a)"/><path d="m330 100h310v345h-310z" fill="url(#b)"/><path d="m330 100h310v345h-310z" fill="url(#o)" opacity=".45"/><path d="m290 100h100v345h-100z" fill="url(#c)" filter="url(#m)" opacity=".62"/><circle cx="110" cy="405" fill="url(#e)" r="95"/><circle cx="110" cy="405" fill="#ffe08a" r="32"/><g fill="#fff" opacity=".28"><ellipse cx="90" cy="300" rx="70" ry="9"/><ellipse cx="200" cy="330" rx="55" ry="7"/></g><g fill="#fff" opacity=".85"><circle cx="420" cy="140" r="1.6"/><circle cx="470" cy="125" r="2.2"/><circle cx="520" cy="162" r="1.5"/><circle cx="600" cy="135" r="2.4"/><circle cx="615" cy="205" r="1.6"/><circle cx="560" cy="245" r="1.4"/><circle cx="485" cy="212" r="1.9"/><circle cx="630" cy="300" r="1.6"/><circle cx="545" cy="120" r="1.2"/></g><path d="m578 152a24 24 0 1 0 0 48 18 18 0 1 1 0-48z" fill="#f6e7c1" filter="url(#l)"/><path d="m20 440h620v140h-620z" fill="url(#d)"/><path d="m20 440h620v140h-620z" fill="url(#o)" opacity=".6"/><g fill="#fff"><ellipse cx="210" cy="452" opacity=".12" rx="130" ry="14"/><ellipse cx="470" cy="447" opacity=".1" rx="150" ry="11"/><ellipse cx="330" cy="470" opacity=".07" rx="90" ry="8"/></g><path d="m240 335 60-30 220-5 45 35-20 60-40 50-65 35-55-22-55 22-45-40-30-45z" fill="#2a2333" stroke="#1b1a1f" stroke-linejoin="round" stroke-width="3"/><g fill="none" opacity=".9" stroke="#4a4055" stroke-width="1.6"><path d="m300 340 40 40-10 40"/><path d="m420 330 35 42 45 28"/><path d="m380 360 10 70"/></g><g fill="#241d2b" stroke="#1b1a1f" stroke-linejoin="round" stroke-width="2.5"><path d="m325 307v-60h10v8h10v-8h10v8h10v-8h10v8h10v-8h10v8h10v-8h10v8h10v-8h10v8h10v-8h10v8h10v-8h5v60z"/><path d="m300 307h30l-8-142-28 3z"/><path d="m368 302h54l-8-192h-38z"/><path d="m438 302h38l10-127h-34z"/><path d="m500 302h28l2-87h-20z"/></g><g fill="#1b1520" stroke="#1b1a1f" stroke-linejoin="round" stroke-width="2.5"><path d="m288 170 40-3-20-49z"/><path d="m366 114 58-2-29-62z"/><path d="m446 178 46-2-20-48z"/><path d="m505 218 30-2-15-30z"/></g><g fill="#2bb3c0" filter="url(#l)" opacity=".95"><path d="m306 230h4v9h-4z"/><path d="m392 180h4v9h-4z"/><path d="m396 240h4v9h-4z"/><path d="m462 220h4v9h-4z"/><path d="m516 250h4v9h-4z"/><path d="m384 280h4v9h-4z"/></g><path d="m20 535 235-183 15 8-158 220h-92z" fill="#6b6270" stroke="#1b1a1f" stroke-linejoin="round" stroke-width="3"/><g opacity=".5" stroke="#1b1a1f" stroke-width="1.5"><path d="m55 508 81 39"/><path d="m90 480 69 34"/><path d="m126 453 57 28"/><path d="m161 425 46 23"/><path d="m196 398 34 17"/><path d="m231 370 23 12"/></g><path d="m20 535 235-183" opacity=".7" stroke="#a89fae" stroke-width="2"/><g stroke="#1b1a1f" stroke-linecap="round" stroke-linejoin="round"><path d="m141 477 2-19" stroke="#2a2230" stroke-width="4"/><path d="m151 480-3-22" stroke="#2a2230" stroke-width="4"/><rect fill="#8a5a1c" height="22" rx="2" stroke-width="1.2" transform="matrix(.99026807 -.1391731 .1391731 .99026807 -60.721391 25.643658)" width="7" x="150" y="436"/><path d="m135 459h22l3-23h-28z" fill="#d9a531" stroke-width="1.6"/><path d="m140 437q-22-6-34 5 10-4 20 5" fill="none" stroke="#2bb3c0" stroke-width="5"/><circle cx="146" cy="428" fill="#e9c4a0" r="7" stroke-width="1.5"/><path d="m139 427a7 7 0 0 1 14 0q-3-5-7-6-5 1-7 6z" fill="#3a2a2a"/></g><path d="m296 527h326v38h-326z" fill="#fffaf0" stroke="#1b1a1f" stroke-width="3"/><text style="font-size:16;fill:#1b1a1f;text-anchor:middle;font-family:'Comic Neue','Chalkboard SE','Comic Sans MS','Segoe Print',sans-serif;font-weight:700;font-style:italic" x="459" y="553">Two skies. One bridge. No agreement.</text></g><g clip-path="url(#q)"><path d="m660 100h400v480h-400z" fill="url(#f)"/><path d="m660 100h400v480h-400z" fill="url(#o)" opacity=".35"/><use opacity=".1" transform="translate(890 175)" xlink:href="#u"/><use opacity=".06" transform="translate(898 168)" xlink:href="#u"/><circle cx="860" cy="52" fill="url(#g)" r="150" stroke="#1b1a1f" stroke-width="4"/><g stroke-width="2"><circle cx="860" cy="52" fill="none" opacity=".55" r="128" stroke="#f3d98a"/><circle cx="860" cy="52" fill="none" opacity=".6" r="100" stroke="#6f4514"/><rect fill="#6f4514" height="14" rx="4" stroke="#1b1a1f" width="40" x="840" y="192"/></g><circle cx="860" cy="350" fill="url(#g)" r="150" stroke="#1b1a1f" stroke-width="4"/><circle cx="860" cy="350" fill="none" opacity=".6" r="134" stroke="#f3d98a" stroke-width="2.5"/><circle cx="860" cy="350" fill="#efe3c4" r="125" stroke="#6f4514" stroke-width="3"/><g clip-path="url(#s)"><use opacity=".26" transform="translate(890 175)" xlink:href="#u"/><use opacity=".14" transform="translate(898 168)" xlink:href="#u"/></g><use xlink:href="#t"/><use transform="matrix(.8660254 .5 -.5 .8660254 290.218153 -383.108891)" xlink:href="#t"/><use transform="matrix(.5 .8660254 -.8660254 .5 733.108891 -569.781847)" xlink:href="#t"/><use transform="matrix(0 1 -1 0 1210 -510)" xlink:href="#t"/><use transform="matrix(-.5 .8660254 -.8660254 -.5 1593.108891 -219.781847)" xlink:href="#t"/><use transform="matrix(-.8660254 .5 -.5 -.8660254 1779.781847 223.108891)" xlink:href="#t"/><use transform="matrix(-1 0 -0 -1 1720 700)" xlink:href="#t"/><use transform="matrix(-.8660254 -.5 .5 -.8660254 1429.781847 1083.108891)" xlink:href="#t"/><use transform="matrix(-.5 -.8660254 .8660254 -.5 986.891109 1269.781847)" xlink:href="#t"/><use transform="matrix(-0 -1 1 -0 510 1210)" xlink:href="#t"/><use transform="matrix(.5 -.8660254 .8660254 .5 126.891109 919.781847)" xlink:href="#t"/><use transform="matrix(.8660254 -.5 .5 .8660254 -59.781847 476.891109)" xlink:href="#t"/><circle cx="860" cy="350" fill="none" opacity=".7" r="112" stroke="#7a4d18" stroke-width="1.5"/><g fill="#7a4d18" font-family="Georgia,'Times New Roman',serif" font-size="22" font-weight="700" text-anchor="middle"><text x="860" y="278">N</text><text x="940" y="358">E</text><text x="860" y="436">S</text><text x="780" y="358">W</text></g><g transform="matrix(.95105652 -.30901699 .30901699 .95105652 -66.064552 282.884834)"><path d="m860 342-110 8 110 8z" fill="#2f2f36" stroke="#1b1a1f" stroke-width="1.5"/><path d="m860 342 112 8-112 8z" fill="#c8102e" stroke="#1b1a1f" stroke-width="1.5"/><g fill="none" opacity=".8" stroke="#e6feff" stroke-linecap="round" stroke-width="2"><path d="m980 338q6 12 0 24"/><path d="m990 332q9 18 0 36"/></g></g><circle cx="860" cy="350" fill="#2bb3c0" filter="url(#k)" opacity=".35" r="34"/><circle cx="860" cy="350" fill="url(#h)" r="22" stroke="#1b1a1f" stroke-width="2"/><circle cx="853" cy="343" fill="#fff" opacity=".8" r="6"/><path d="m760 300a125 125 0 0 1 140-68 140 140 0 0 0 -125 88z" fill="#fff" opacity=".16"/><path d="m690 527h236v38h-236z" fill="#fffaf0" stroke="#1b1a1f" stroke-width="3"/><text style="font-size:17;fill:#1b1a1f;text-anchor:middle;font-family:'Comic Neue','Chalkboard SE','Comic Sans MS','Segoe Print',sans-serif;font-weight:700;font-style:italic" x="808" y="553">It only ever points here.</text></g><g clip-path="url(#r)"><path d="m1080 100h500v480h-500z" fill="#5d5663"/><g opacity=".9" stroke="#4a444f" stroke-width="1.5"><path d="m1080 220h500"/><path d="m1080 260h500"/><path d="m1080 300h500"/><path d="m1080 340h500"/><path d="m1080 380h500"/><path d="m1080 420h500"/><path d="m1300 220v40"/><path d="m1340 260v40"/><path d="m1310 300v40"/><path d="m1290 340v40"/><path d="m1330 380v40"/><path d="m1420 420v15"/></g><path d="m1080 100h500v120h-500z" fill="url(#j)"/><path d="m1080 435h500v145h-500z" fill="#3f3945"/><path d="m1080 435h500v145h-500z" fill="url(#o)" opacity=".5"/><g fill="none" opacity=".9" stroke="#2b262f" stroke-width="1.5"><path d="m1080 470h500"/><path d="m1080 520h500"/><path d="m1200 435-50 145"/><path d="m1330 435v145"/><path d="m1460 435 50 145"/></g><path d="m1102 470v-255a88 88 0 0 1 176 0v255z" fill="#7d7383" stroke="#1b1a1f" stroke-linejoin="round" stroke-width="4"/><path d="m1122 470v-250a68 68 0 0 1 136 0v250z" fill="url(#i)"/><path d="m1122 470v-250a68 68 0 0 1 136 0v250" fill="none" filter="url(#k)" opacity=".8" stroke="#2bb3c0" stroke-width="3"/><path d="m1150 420c-20-70 80-80 65-140-10-40-55-30-45 20" fill="none" opacity=".55" stroke="#b9a6ff" stroke-linecap="round" stroke-width="3"/><g fill="#fff"><circle cx="1150" cy="260" r="1.8"/><circle cx="1230" cy="240" r="2.4"/><circle cx="1190" cy="300" r="1.5"/><circle cx="1140" cy="340" r="2"/><circle cx="1240" cy="330" r="1.6"/><circle cx="1170" cy="390" r="2.2"/><circle cx="1220" cy="410" r="1.4"/><circle cx="1200" cy="450" r="1.8"/><circle cx="1135" cy="440" r="1.3"/><circle cx="1250" cy="380" r="1.2"/></g><g fill="#8ff0f8" filter="url(#l)"><circle cx="1205" cy="355" r="3.2"/><circle cx="1160" cy="300" r="2.4"/><circle cx="1235" cy="440" r="2"/></g><ellipse cx="1190" cy="472" fill="#2bb3c0" filter="url(#k)" opacity=".25" rx="90" ry="10"/><path d="m1446 470v-260a56 56 0 0 1 122 0v260z" fill="#8e8590" stroke="#1b1a1f" stroke-linejoin="round" stroke-width="4"/><path d="m1458 470v-256a48 48 0 0 1 98 0v256z" fill="#3a2a22" stroke="#1b1a1f" stroke-width="2.5"/><g opacity=".9" stroke="#241a14" stroke-width="2"><path d="m1482 180v290"/><path d="m1507 166v304"/><path d="m1532 180v290"/></g><g fill="#6a6a72" stroke="#1b1a1f" stroke-width="2"><path d="m1458 252h98v12h-98z"/><path d="m1458 402h98v12h-98z"/></g><circle cx="1507" cy="332" fill="#7a5a26" r="34" stroke="#1b1a1f" stroke-width="3"/><circle cx="1507" cy="332" fill="none" opacity=".7" r="24" stroke="#f3d98a" stroke-width="2"/><path d="m1507 314 13 18-13 18-13-18zm-10 8 20 20m0-20-20 20" fill="none" filter="url(#l)" stroke="#f2a93b" stroke-linejoin="round" stroke-width="2.5"/><g fill="#33303a" stroke="#1b1a1f" stroke-linejoin="round" stroke-width="3"><path d="m1360 248 72-2 12 100-94 2z"/><path d="m1355 346 39 1-4 123h-32z"/><path d="m1400 347 42-1 6 124h-38z"/><path d="m1440 258 26 12-6 110-18-4z"/><path d="m1354 256-24 14 6 122 16-4z"/><path d="m1376 178 44-2 14 28-8 34-54 2-8-34z"/></g><g fill="none" stroke="#8a8592" stroke-linecap="round" stroke-width="2"><path d="m1372 270 16 30-8 30"/><path d="m1425 262-11 30 14 26"/><path d="m1364 372 14 38-8 40"/><path d="m1426 380-8 40 14 35"/><path d="m1390 184 8 16"/><path d="m1448 300 6 40"/></g><g fill="none" filter="url(#l)" opacity=".7" stroke="#f2a93b" stroke-width="1.5"><path d="m1388 300-8 30"/><path d="m1414 292 14 26"/></g><circle cx="1404" cy="208" fill="#f2a93b" filter="url(#k)" opacity=".5" r="12"/><circle cx="1404" cy="208" fill="#f2a93b" r="9" stroke="#1b1a1f" stroke-width="2"/><ellipse cx="1404" cy="208" fill="#1b1a1f" rx="2.4" ry="6"/><g stroke="#1b1a1f"><g stroke-linecap="round" stroke-linejoin="round"><path d="m1282 470 2-24" stroke="#2a2230" stroke-width="7"/><path d="m1300 470-2-24" stroke="#2a2230" stroke-width="7"/><g fill="#d9a531" stroke-width="2"><path d="m1268 448h46l-4-44h-38z"/><rect height="34" rx="3" width="10" x="1262" y="410"/><rect height="30" rx="3" transform="matrix(.90630779 -.42261826 .42261826 .90630779 -55.562265 595.37482)" width="10" x="1310" y="408"/></g><path d="m1276 404q15-8 30 0 14 6 32-4" fill="none" stroke="#2bb3c0" stroke-width="7"/><circle cx="1291" cy="390" fill="#e9c4a0" r="12" stroke-width="2"/><path d="m1279 388a12 12 0 0 1 24 0q-3-10-12-11-9 1-12 11z" fill="#3a2a2a" stroke-width="1.5"/><path d="m1280 392q-8 10-6 22" fill="none" stroke="#3a2a2a" stroke-width="5"/></g><rect fill="#fff" height="62" rx="18" stroke-width="3" width="226" x="1330" y="112"/><path d="m1396 172h22l-14 24z" fill="#fff" stroke-linejoin="round" stroke-width="3"/></g><path d="m1397 168h20v6h-20z" fill="#fff"/><g fill="#1b1a1f" font-family="'Comic Neue','Chalkboard SE','Comic Sans MS','Segoe Print',sans-serif" font-size="18" font-weight="700" text-anchor="middle"><text x="1443" y="139">You opened that</text><text x="1443" y="162">door tomorrow.</text></g><rect fill="#fff" height="44" rx="16" stroke="#1b1a1f" stroke-width="3" width="228" x="1096" y="500"/><path d="m1252 502h24l14-82z" fill="#fff" stroke="#1b1a1f" stroke-linejoin="round" stroke-width="3"/><path d="m1253 498h22v6h-22z" fill="#fff"/><text fill="#1b1a1f" font-family="'Comic Neue','Chalkboard SE','Comic Sans MS','Segoe Print',sans-serif" font-size="17" font-weight="700" text-anchor="middle" x="1210" y="529">Then why is it still shut?</text></g><g fill="none" stroke="#1b1a1f" stroke-linejoin="round" stroke-width="5"><rect height="480" rx="4" width="620" x="20" y="100"/><rect height="480" rx="4" width="400" x="660" y="100"/><rect height="480" rx="4" width="500" x="1080" y="100"/></g><text fill="#5a5560" font-family="'Comic Neue','Chalkboard SE','Comic Sans MS','Segoe Print',sans-serif" font-size="16" font-style="italic" font-weight="700" x="20" y="618">Next: step through the gate, or question the guardian?</text><text fill="#8a8592" font-family="'Avenir Next','Helvetica Neue',Arial,sans-serif" font-size="14" font-weight="600" text-anchor="end" x="1580" y="618">Page 1 · Rewind keeps every path</text></svg>